<?xml version="1.0" standalone="no"?>
<!DOCTYPE svg PUBLIC "-//W3C//DTD SVG 20010904//EN"
 "http://www.w3.org/TR/2001/REC-SVG-20010904/DTD/svg10.dtd">
<svg version="1.0" xmlns="http://www.w3.org/2000/svg"
 width="50.000000pt" height="50.000000pt" viewBox="0 0 50.000000 50.000000"
 preserveAspectRatio="xMidYMid meet">

<g transform="translate(0.000000,50.000000) scale(0.100000,-0.100000)"
fill="#000000" stroke="none">
<path d="M200 448 c-23 -24 -159 -296 -181 -360 -10 -28 -10 -41 -2 -49 19
-19 39 -4 76 53 37 57 109 128 131 128 9 0 15 -20 18 -72 5 -62 9 -75 32 -95
55 -47 118 -17 166 80 36 75 36 102 0 102 -20 0 -29 -10 -51 -55 -49 -102 -79
-103 -79 -2 0 43 -5 58 -26 78 -21 22 -33 25 -68 22 l-44 -3 15 30 c9 17 29
49 44 72 32 46 37 78 13 87 -22 8 -21 9 -44 -16z"/>
</g>
</svg>
